<!DOCTYPE svg PUBLIC "-//W3C//DTD SVG 1.1//EN" "http://www.w3.org/Graphics/SVG/1.1/DTD/svg11.dtd">
<!-- Uploaded to: SVG Repo, www.svgrepo.com, Transformed by: SVG Repo Mixer Tools -->
<svg width="64px" height="64px" viewBox="0 0 24 24" id="Layer_1" data-name="Layer 1" xmlns="http://www.w3.org/2000/svg" fill="#000000">
<g id="SVGRepo_bgCarrier" stroke-width="0"/>
<g id="SVGRepo_tracerCarrier" stroke-linecap="round" stroke-linejoin="round"/>
<g id="SVGRepo_iconCarrier">
<defs>
<style>.cls-1{fill:none;stroke:#6b6b6b;stroke-miterlimit:10;stroke-width:1.91px;}.cls-2{fill:#6b6b6b;}</style>
</defs>
<path class="cls-1" d="M9.11,5.08c0,2.39-3.81,6-3.81,6s-3.82-3.58-3.82-6A3.7,3.7,0,0,1,5.3,1.5,3.7,3.7,0,0,1,9.11,5.08Z"/>
<circle class="cls-2" cx="5.3" cy="5.32" r="0.95"/>
<path class="cls-1" d="M4.34,13h4.3A2.39,2.39,0,0,1,11,15.34h0a2.39,2.39,0,0,1-2.38,2.39H3.86a2.39,2.39,0,0,0-2.38,2.38h0A2.39,2.39,0,0,0,3.86,22.5H17.7"/>
<line class="cls-1" x1="16.75" y1="9.14" x2="16.75" y2="20.59"/>
<polygon class="cls-1" points="16.75 14.86 21.52 14.86 20.57 12.96 21.52 11.04 16.75 11.04 16.75 14.86"/>
</g>
</svg>